# xmcd
#
# Track frame offsets: 
#        150
#        8661
#        24576
#        41992
#        57909
#        78228
#        104350
#        127252
#        144533
#        164237
#        188769
#        207654
#        227744
#        236966
#        256284
#        270091
#        288622
#        307615
#
# Disc length: 4376 seconds
#
# Revision: 0
# Processed by: cddbd v1.5PL3 Copyright (c) Steve Scherf et al.
# Submitted via: ExactAudioCopy v0.95a4
#
DISCID=05111612
DTITLE=Alicia Keys - Songs In A Minor
DYEAR=2001
DGENRE=Soul
TTITLE0=Piano and I
TTITLE1=Girlfriend
TTITLE2=How Come You Don't Call Me
TTITLE3=Fallin'
TTITLE4=Troubles
TTITLE5=Rock Wit'cha
TTITLE6=A Woman's Worth
TTITLE7=Jane Doe
TTITLE8=Goodbye
TTITLE9=The Life
TTITLE10=Mr. Man (feat. Jimmy Cozier)
TTITLE11=Why Do I Feel So Sad
TTITLE12=Never Felt This Way
TTITLE13=Butterflies
TTITLE14=Caged Bird
TTITLE15=My Dolittle
TTITLE16=Sexy Thing
TTITLE17=Fallin' (remix feat. Busty Rhymes)
EXTD=
EXTT0=
EXTT1=
EXTT2=
EXTT3=
EXTT4=
EXTT5=
EXTT6=
EXTT7=
EXTT8=
EXTT9=
EXTT10=
EXTT11=
EXTT12=
EXTT13=
EXTT14=
EXTT15=
EXTT16=
EXTT17=
PLAYORDER=
